<svg width="684" height="802" viewBox="0 0 684 802" fill="none" xmlns="http://www.w3.org/2000/svg">
<g clip-path="url(#clip0_123_2627)">
<path d="M403.466 194.82C400.003 194.947 397.628 199.413 402.478 199.087C405.351 198.419 403.306 196.336 403.466 194.82Z" fill="#54505A" fill-opacity="0.7"/>
<path d="M257.525 159.092C258.816 159.099 258.894 158.196 258.727 157.3C257.918 153.525 253.293 159.307 257.525 159.092Z" fill="#54505A" fill-opacity="0.7"/>
<path d="M96.0308 343.207C96.171 344.469 95.3481 346.019 96.5433 346.924C99.4992 347.172 98.4465 343.57 96.0308 343.207Z" fill="#54505A" fill-opacity="0.7"/>
<path d="M450.693 48.912C448.459 49.5126 448.783 52.19 451.116 51.5178C453.394 51.9244 452.484 48.905 450.693 48.912Z" fill="#54505A" fill-opacity="0.7"/>
<path d="M307.447 144.809C306.397 145.504 306.404 146.405 306.59 147.56C309.325 147.029 311.633 142.818 307.447 144.809Z" fill="#54505A" fill-opacity="0.7"/>
<path d="M413.297 76.356C414.336 76.4969 414.568 75.8316 414.488 75.0809C415.262 70.523 409.311 74.8475 413.297 76.356Z" fill="#54505A" fill-opacity="0.7"/>
<path d="M567.583 334.173C566.371 334.937 566.719 337.039 568.383 336.33C569.663 335.609 568.916 333.893 567.583 334.173Z" fill="#54505A" fill-opacity="0.7"/>
<path d="M146.455 113.831C146.006 115.512 147.592 116.413 149.109 115.565C148.877 113.978 147.781 113.727 146.455 113.831Z" fill="#54505A" fill-opacity="0.7"/>
<path d="M635.746 106.775C635.643 103.976 632.411 105.156 633.17 107.501C634.03 107.258 634.887 107.018 635.746 106.775Z" fill="#54505A" fill-opacity="0.7"/>
<path d="M642.808 391.863C642.431 390.929 641.346 390.197 641.231 391.488C641.44 392.586 641.934 392.533 642.808 391.863Z" fill="#54505A" fill-opacity="0.7"/>
<path d="M531.49 387.711C531.12 388.709 531.593 390.516 532.855 389.455C533.352 388.52 532.492 387.351 531.49 387.711Z" fill="#54505A" fill-opacity="0.7"/>
<path d="M380.302 342.838C379.622 342.343 379.121 342.537 378.762 343.353C379.387 343.875 380.61 344.196 380.302 342.838Z" fill="#54505A" fill-opacity="0.7"/>
<path d="M654.3 277.388C655.578 275.991 655.332 275.101 653.436 274.762C653.406 275.743 653.411 276.714 654.3 277.388Z" fill="#54505A" fill-opacity="0.7"/>
<path d="M471.187 0.000154958C470.598 1.33308 472.986 2.38879 473.237 0.831786C472.915 -0.274753 471.941 0.12028 471.187 0.000154958Z" fill="#54505A" fill-opacity="0.7"/>
<path d="M259.639 80.0128C257.672 80.0544 257.662 82.644 259.66 82.644C259.653 81.7662 259.646 80.8907 259.639 80.0128Z" fill="#54505A" fill-opacity="0.7"/>
<path d="M215.432 297.853C215.273 298.456 214.765 299.274 215.777 299.452C217.712 299.405 217.317 297.246 215.432 297.853Z" fill="#54505A" fill-opacity="0.7"/>
<path d="M339.293 344.09C338.244 343.988 337.281 345.252 338.392 345.952C339.571 346.229 339.341 344.783 339.293 344.09Z" fill="#54505A" fill-opacity="0.7"/>
<path d="M397.762 222.177C399.339 221.899 396.511 219.663 396.884 221.458C396.849 221.936 397.125 222.274 397.762 222.177Z" fill="#54505A" fill-opacity="0.7"/>
<path d="M119.08 158.203C119.758 158.143 120.567 158.208 120.583 157.233C119.965 156.036 118.822 157.069 119.08 158.203Z" fill="#54505A" fill-opacity="0.7"/>
<path d="M391.799 206.498C390.209 207.524 391.921 208.702 392.337 206.958C392.362 206.884 392.02 206.68 391.799 206.498Z" fill="#54505A" fill-opacity="0.7"/>
<path d="M551.576 213.449C549.972 213.768 549.967 213.816 551.569 214.151C552.001 213.953 551.856 213.521 551.576 213.449Z" fill="#54505A" fill-opacity="0.7"/>
<path d="M341.045 209.729C341.265 208.997 341.111 208.734 340.417 208.413C340.084 209.113 340.095 209.646 341.045 209.729Z" fill="#54505A" fill-opacity="0.7"/>
<path d="M197.702 243.439C197.584 242.898 198.046 241.889 197.318 241.815C196.355 241.743 196.615 243.792 197.702 243.439Z" fill="#54505A" fill-opacity="0.7"/>
<path d="M265.767 227.506C266.3 227.381 266.61 227.125 266.033 226.822C265.463 226.871 265.236 227.106 265.767 227.506Z" fill="#54505A" fill-opacity="0.7"/>
<path d="M327.794 208.013C327.808 207.475 327.821 206.934 327.833 206.396C326.01 206.211 327.341 209.161 327.794 208.013Z" fill="#54505A" fill-opacity="0.7"/>
<path d="M203.073 192.127C203.092 192.785 203.007 193.497 203.889 193.702C203.88 193.039 204.009 192.307 203.073 192.127Z" fill="#54505A" fill-opacity="0.7"/>
<path d="M133.197 73.8773C132.978 74.4895 133.332 74.7852 133.941 74.635C134.006 74.0714 133.804 73.7733 133.197 73.8773Z" fill="#54505A" fill-opacity="0.7"/>
<path d="M313.603 296.837C313.743 296.183 313.412 295.938 312.803 296.127C312.846 296.518 312.973 296.966 313.603 296.837Z" fill="#54505A" fill-opacity="0.7"/>
<path d="M400.481 19.4906C400.573 20.3522 400.782 20.0265 401.244 19.5437C401.014 19.1718 400.759 19.1556 400.481 19.4906Z" fill="#54505A" fill-opacity="0.7"/>
<path d="M627.378 178.86C626.973 178.98 627.226 179.16 627.396 179.403C627.674 179.185 627.67 179.056 627.378 178.86Z" fill="#54505A" fill-opacity="0.7"/>
<path d="M473.604 149.277C472.037 149.822 474.386 150.968 474.22 149.672C474.089 149.33 473.885 149.332 473.604 149.277Z" fill="#54505A" fill-opacity="0.7"/>
<path d="M304.774 200.974C303.944 201.099 304.218 201.298 304.703 201.767C304.795 201.508 304.818 201.245 304.774 200.974Z" fill="#54505A" fill-opacity="0.7"/>
<path d="M327.892 208.18C327.605 208.11 327.318 208.039 327.033 207.969C327.083 209.021 327.449 208.764 327.892 208.18Z" fill="#54505A" fill-opacity="0.7"/>
<path d="M124.353 78.3381C123.599 78.6245 123.599 78.7077 124.353 78.9941C124.575 78.777 124.575 78.5529 124.353 78.3381Z" fill="#54505A" fill-opacity="0.7"/>
<path d="M400.481 19.4905C400.906 19.5043 401.761 19.6453 401.483 19.0007C400.986 18.3678 399.954 18.6404 400.481 19.4905Z" fill="#54505A" fill-opacity="0.7"/>
<path d="M124.353 78.3381C124.304 78.5575 124.304 78.777 124.353 78.9941C124.893 78.6222 125.136 78.4859 124.353 78.3381Z" fill="#54505A" fill-opacity="0.7"/>
<path d="M401.175 18.7629C401.147 19.4536 401.324 19.7192 402.02 19.4998C402.34 18.6843 401.846 18.6913 401.175 18.7629Z" fill="#54505A" fill-opacity="0.7"/>
<path d="M370.982 154.22C370.754 153.929 370.628 153.941 370.442 154.26C370.669 154.548 370.798 154.541 370.982 154.22Z" fill="#54505A" fill-opacity="0.7"/>
<path d="M61.6866 330.144C61.613 327.991 60.8293 326.767 57.3218 327.919C59.9811 328.049 60.5511 329.426 61.6866 330.144Z" fill="#54505A" fill-opacity="0.7"/>
<path d="M48.0453 182.651C47.9625 181.133 45.3813 181.424 45.8065 182.983C46.1099 184.231 48.1395 183.949 48.0453 182.651Z" fill="#54505A" fill-opacity="0.7"/>
<path d="M95.0537 71.2114C93.6103 71.2668 90.3924 73.302 93.4034 73.7363C95.0077 73.6347 95.0997 72.4496 95.0537 71.2114Z" fill="#54505A" fill-opacity="0.7"/>
<path d="M92.9532 357.678C92.2843 356.976 90.6363 356.534 90.8937 358.098C91.1075 359.44 93.3072 359.378 92.9532 357.678Z" fill="#54505A" fill-opacity="0.7"/>
<path d="M104.813 53.3082C104.554 54.4702 105.951 55.5929 106.9 54.5164C107.443 53.2967 105.735 51.9753 104.813 53.3082Z" fill="#54505A" fill-opacity="0.7"/>
<path d="M231.361 393.845C232.19 393.736 233.257 393.708 233.284 392.662C232.783 390.601 229.922 392.193 231.361 393.845Z" fill="#54505A" fill-opacity="0.7"/>
<path d="M33.8523 243.919C33.6293 242.663 32.4387 242.607 31.8296 243.651C32.3973 244.252 33.7534 245.493 33.8523 243.919Z" fill="#54505A" fill-opacity="0.7"/>
<path d="M59.6343 119.98C60.1629 118.301 58.8919 115.891 57.7426 118.215C57.6897 119.335 58.5241 119.904 59.6343 119.98Z" fill="#54505A" fill-opacity="0.7"/>
<path d="M156.961 358.264C157.145 356.109 154.217 356.144 154.405 358.278C155.258 358.274 156.108 358.269 156.961 358.264Z" fill="#54505A" fill-opacity="0.7"/>
<path d="M112.83 36.9965C112.235 36.0679 111.676 35.8346 111.237 36.8117C111.481 37.8074 112.09 37.7566 112.83 36.9965Z" fill="#54505A" fill-opacity="0.7"/>
<path d="M80.0466 310.203C79.4329 310.815 78.8675 311.504 79.6122 312.319C81.4303 313.246 80.7522 311.083 80.0466 310.203Z" fill="#54505A" fill-opacity="0.7"/>
<path d="M71.2417 270.998C72.0346 270.91 72.2645 270.203 71.9312 269.79C70.9544 268.459 69.766 270.529 71.2417 270.998Z" fill="#54505A" fill-opacity="0.7"/>
<path d="M80.7114 111.71C80.2908 110.927 79.6932 111.345 79.3047 111.774C78.9163 112.99 80.2908 112.405 80.7114 111.71Z" fill="#54505A" fill-opacity="0.7"/>
<path d="M173.407 393.542C173.186 392.717 171.667 393.274 172.607 393.692C172.827 393.752 173.103 393.607 173.407 393.542Z" fill="#54505A" fill-opacity="0.7"/>
<path d="M230.497 398.382C230.641 398.897 230.097 400.286 231.51 399.188C231.172 398.92 230.834 398.65 230.497 398.382Z" fill="#54505A" fill-opacity="0.7"/>
<path d="M98.407 92.09C98.0898 91.5055 97.7634 91.6372 97.2808 91.9098C97.598 92.4619 97.9106 92.358 98.407 92.09Z" fill="#54505A" fill-opacity="0.7"/>
<path d="M30.1628 72.6528C30.4042 72.1515 30.5099 71.835 29.9445 71.5463C29.6985 72.036 29.5744 72.3641 30.1628 72.6528Z" fill="#54505A" fill-opacity="0.7"/>
<path d="M13.7703 152.116C14.1265 151.901 14.5104 151.575 13.9656 151.286C12.8578 150.471 12.4624 152.816 13.7703 152.116Z" fill="#54505A" fill-opacity="0.7"/>
<path d="M25.5568 174.801C26.0257 174.397 25.9521 174.163 25.566 173.766C25.1545 174.069 25.4465 174.39 25.5568 174.801Z" fill="#54505A" fill-opacity="0.7"/>
<path d="M102.105 100.598C101.968 100.03 101.696 99.6834 101.375 100.312C101.425 100.919 101.68 101.162 102.105 100.598Z" fill="#54505A" fill-opacity="0.7"/>
<path d="M111.945 49.0506C110.734 49.0298 110.939 50.2819 111.932 50.5383C112.387 50.0463 112.394 49.5496 111.945 49.0506Z" fill="#54505A" fill-opacity="0.7"/>
<path d="M101.956 120.504C101.531 120.012 101.232 120.084 100.733 120.359C101.085 120.98 101.338 120.782 101.956 120.504Z" fill="#54505A" fill-opacity="0.7"/>
<path d="M13.7702 152.116C13.4806 152.056 13.191 152 12.9014 151.954C13.0163 152.954 13.3588 152.721 13.7702 152.116Z" fill="#54505A" fill-opacity="0.7"/>
<path d="M67.4925 166.667C67.304 166.413 67.0512 166.39 66.9707 166.704C67.0948 167.005 67.3431 166.944 67.4925 166.667Z" fill="#54505A" fill-opacity="0.7"/>
<path d="M97.6027 24.9216C97.3706 25.1595 97.1384 25.3951 96.9062 25.6331C97.4832 25.737 97.7061 25.4899 97.6027 24.9216Z" fill="#54505A" fill-opacity="0.7"/>
<path d="M111.973 134.104C112.699 133.831 112.699 133.751 111.973 133.478C111.554 133.66 111.706 134.044 111.973 134.104Z" fill="#54505A" fill-opacity="0.7"/>
<path d="M511.033 34.6842C509.383 38.4705 516.283 37.9022 515.074 35.0076C513.831 34.2961 512.504 33.0694 511.033 34.6842Z" fill="#54505A" fill-opacity="0.7"/>
<path d="M565.808 72.8331C565.427 71.0612 562.085 72.1146 562.703 73.6462C563.478 75.328 566.296 74.8197 565.808 72.8331Z" fill="#54505A" fill-opacity="0.7"/>
<path d="M527.87 97.0523C526.98 97.7939 526.693 99.21 528.067 99.0991C528.773 98.5839 528.568 97.7615 527.87 97.0523Z" fill="#54505A" fill-opacity="0.7"/>
<path d="M550.788 63.4495C550.043 62.7379 549.452 62.6571 549.229 63.6504C549.664 64.5953 550.206 64.3319 550.788 63.4495Z" fill="#54505A" fill-opacity="0.7"/>
<path d="M526.123 56.905C526.043 57.8151 526.679 57.9075 527.213 57.6373C528.148 57.2053 526.456 56.2327 526.123 56.905Z" fill="#54505A" fill-opacity="0.7"/>
<path d="M601.963 160.446C601.711 160.109 601.564 160.116 601.345 160.478C601.598 160.813 601.745 160.809 601.963 160.446Z" fill="#54505A" fill-opacity="0.7"/>
<path d="M526.123 56.905C526.415 56.9004 526.705 56.875 526.992 56.8265C526.472 56.4014 526.181 55.981 526.123 56.905Z" fill="#54505A" fill-opacity="0.7"/>
<path d="M479.833 346.853C479.394 347.368 479.698 347.402 480.236 347.405C480.785 347.125 480.144 347.003 479.833 346.853Z" fill="#54505A" fill-opacity="0.7"/>
<path d="M540.801 291.644C539.948 290.824 539.654 290.741 538.889 291.517C539.525 292.471 539.815 292.362 540.801 291.644Z" fill="#54505A" fill-opacity="0.7"/>
<path d="M320.9 128.026C321.404 128.008 321.905 127.989 322.408 127.971C322.365 126.751 321.112 127.019 320.9 128.026Z" fill="#54505A" fill-opacity="0.7"/>
<path d="M336.657 127.151C337.01 125.637 336.378 124.242 334.852 125.335C334.149 127.846 334.65 129.456 336.657 127.151Z" fill="#54505A" fill-opacity="0.7"/>
<path d="M587.205 206.253C587.141 204.816 585.709 205.772 586.389 206.655C586.782 207.172 587.007 206.569 587.205 206.253Z" fill="#54505A" fill-opacity="0.7"/>
<path d="M171.934 215.101C171.81 214.309 171.683 214.546 171.322 215.101C171.525 215.406 171.729 215.406 171.934 215.101Z" fill="#54505A" fill-opacity="0.7"/>
<path d="M171.934 215.101C171.782 215.114 171.476 215.114 171.322 215.101C171.446 215.907 171.571 215.66 171.934 215.101Z" fill="#54505A" fill-opacity="0.7"/>
<path d="M683.5 184.025C682.302 184.619 682.247 185.21 683.5 185.804V184.025Z" fill="#8B8693"/>
<path d="M596.787 400.967C597.086 399.389 595.845 400.699 595.018 400.967C595.608 400.967 596.197 400.967 596.787 400.967Z" fill="#8B8693"/>
<path d="M49.0794 400.967C48.4887 400.013 47.9003 400.05 47.3096 400.967H49.0794Z" fill="#8B8693"/>
<path d="M528.697 217.919C529.424 220.458 530.908 220.885 533.046 219.499C532.283 217.067 531.626 214.336 528.697 217.919Z" fill="#8B8693"/>
<path d="M514.499 261.222C512.297 261.083 510.973 263.745 513.226 264.786C514.954 265.352 517.184 261.273 514.499 261.222Z" fill="#8B8693"/>
<path d="M482.047 208.979C480.881 206.562 477.342 205.137 477.489 208.39C478.597 209.589 480.07 208.674 482.047 208.979Z" fill="#8B8693"/>
<path d="M17.2291 124.559C18.4036 123.267 18.2749 121.9 16.5579 121.759C14.5307 121.902 15.3145 125.18 17.2291 124.559Z" fill="#8B8693"/>
<path d="M471.998 139.491C473.066 136.772 469.75 136.079 468.757 138.158C469.343 139.655 470.639 139.706 471.998 139.491Z" fill="#8B8693"/>
<path d="M525.152 334.274C527.614 335.838 527.662 333.763 526.846 331.721C525.106 331.786 525.049 332.976 525.152 334.274Z" fill="#8B8693"/>
<path d="M221.62 208.896C220.827 209.741 220.317 210.88 221.742 211.252C224.077 211.663 223.838 208.096 221.62 208.896Z" fill="#8B8693"/>
<path d="M127.435 71.5834C128.977 71.7451 128.772 69.3611 127.375 69.5528C126.23 69.7977 126.262 71.3224 127.435 71.5834Z" fill="#8B8693"/>
<path d="M532.683 381.213C532.021 380.361 531.012 380.897 530.655 381.634C530.322 383.077 532.798 382.592 532.683 381.213Z" fill="#8B8693"/>
<path d="M350.71 225.854C351.677 227.326 353.449 225.589 353.344 224.08C352.135 224.085 349.503 223.932 350.71 225.854Z" fill="#8B8693"/>
<path d="M130.568 123.563C129.837 122.701 128.853 122.644 127.835 122.697C127.642 124.328 130.402 125.73 130.568 123.563Z" fill="#8B8693"/>
<path d="M403.453 377.868C404.23 377.21 404.395 376.618 403.448 376.29C402.504 376.625 402.671 377.212 403.453 377.868Z" fill="#8B8693"/>
<path d="M264.976 370.712C263.664 372.128 264.004 372.996 265.845 373.368C265.868 372.379 265.849 371.405 264.976 370.712Z" fill="#8B8693"/>
<path d="M348.098 370.956C347.402 372 347.31 372.301 348.285 372.943C349.048 372.127 348.942 371.825 348.098 370.956Z" fill="#8B8693"/>
<path d="M653.355 326.309C651.65 325.646 650.815 327.815 652.512 328.314C653.698 328.323 653.259 327.076 653.355 326.309Z" fill="#8B8693"/>
<path d="M177.252 122.65C175.455 124.827 178.958 125.282 178.958 122.935C178.893 121.932 177.877 122.533 177.252 122.65Z" fill="#8B8693"/>
<path d="M539.208 285.402C537.142 283.468 536.744 286.73 538.758 287.229C539.415 287.294 539.181 286.072 539.208 285.402Z" fill="#8B8693"/>
<path d="M239.336 305.872C239.371 307.851 241.957 307.851 241.941 305.844C241.072 305.853 240.205 305.862 239.336 305.872Z" fill="#8B8693"/>
<path d="M130.421 163.438C130.982 161.391 129.191 161.421 128.352 162.622C128.545 163.92 129.612 163.431 130.421 163.438Z" fill="#8B8693"/>
<path d="M164.109 339.617C165.403 341.168 166.465 338.647 165.026 337.866C164.721 338.451 164.415 339.035 164.109 339.617Z" fill="#8B8693"/>
<path d="M92.4427 251.572C91.8589 251.304 91.2728 251.036 90.689 250.768C90.4223 252.302 91.5417 253.818 92.4427 251.572Z" fill="#8B8693"/>
<path d="M345.827 379.319C345.133 378.751 344.06 378.721 344.225 379.765C344.765 380.61 345.324 379.832 345.827 379.319Z" fill="#8B8693"/>
<path d="M172.023 283.614C171.055 282.902 169.106 282.588 169.416 284.494C170.393 284.526 171.368 284.547 172.023 283.614Z" fill="#8B8693"/>
<path d="M327.794 208.013C328.559 207.977 329.644 208.263 329.472 206.958C329.111 205.313 326.39 206.812 327.794 208.013Z" fill="#8B8693"/>
<path d="M633.016 219.471C633.825 219.464 634.064 218.854 633.701 218.374C632.8 217.029 631.683 218.845 633.016 219.471Z" fill="#8B8693"/>
<path d="M332.246 142.104C334.055 142.219 333.919 140.852 332.246 140.591C331.69 141.094 331.69 141.598 332.246 142.104Z" fill="#8B8693"/>
<path d="M482.695 80.7983C484.476 80.8699 484.357 79.6386 482.736 79.2805C482.047 79.7679 482.137 80.2762 482.695 80.7983Z" fill="#8B8693"/>
<path d="M288.039 318.258C288.595 318.233 289.151 318.207 289.708 318.182C289.482 317.034 287.428 317.057 288.039 318.258Z" fill="#8B8693"/>
<path d="M242.001 144.987C241.773 145.724 241.929 145.996 242.61 146.364C243 145.64 242.918 145.128 242.001 144.987Z" fill="#8B8693"/>
<path d="M436.429 252.446C436.99 252.286 437.346 252.014 436.71 251.695C436.094 251.748 435.896 251.995 436.429 252.446Z" fill="#8B8693"/>
<path d="M482.695 80.7982C482.587 80.2507 483.091 79.2112 482.325 79.1673C481.316 79.0702 481.542 81.1147 482.695 80.7982Z" fill="#8B8693"/>
<path d="M161.537 112.054C161.578 112.918 162.65 113.096 163.006 112.424C162.562 112.28 161.829 112.241 161.537 112.054Z" fill="#8B8693"/>
<path d="M197.702 243.439C198.929 243.46 198.718 242.184 197.707 241.937C197.212 242.436 197.247 242.935 197.702 243.439Z" fill="#8B8693"/>
<path d="M332.246 142.104C332.246 141.6 332.246 141.094 332.246 140.591C330.988 140.544 331.225 141.859 332.246 142.104Z" fill="#8B8693"/>
<path d="M155.161 253.34C154.628 252.125 154.079 252.18 153.513 253.319L155.161 253.34Z" fill="#8B8693"/>
<path d="M473.609 150.286C474.269 151.328 474.952 151.504 475.667 150.337C475.211 149.57 474.122 149.582 473.609 150.286Z" fill="#8B8693"/>
<path d="M277.319 102.208C277.319 101.659 277.321 101.109 277.324 100.559C276.096 101.104 276.048 101.654 277.319 102.208Z" fill="#8B8693"/>
<path d="M362.202 148.533C362.4 149.138 362.832 149.473 363.416 149.205C364.374 148.761 362.496 147.595 362.202 148.533Z" fill="#8B8693"/>
<path d="M475.655 149.242C474.951 148.126 474.271 148.191 473.604 149.277C474.076 149.94 475.234 149.97 475.655 149.242Z" fill="#8B8693"/>
<path d="M362.202 148.533C363.719 148.812 363.285 147.235 362.066 147.697C361.478 147.965 361.781 148.309 362.202 148.533Z" fill="#8B8693"/>
<path d="M668.978 238.005C669.245 237.356 669.449 237.098 668.806 236.749C668.525 237.271 668.479 237.555 668.978 238.005Z" fill="#8B8693"/>
<path d="M330.749 383.842C331.579 384.016 330.903 382.671 330.605 383.565C330.579 383.63 330.697 383.755 330.749 383.842Z" fill="#8B8693"/>
<path d="M132.296 74.5635C132.592 74.7183 133.673 75.0971 133.13 74.5173C134.047 73.7365 132.172 73.5701 132.296 74.5635Z" fill="#8B8693"/>
<path d="M551.576 213.449C551.634 213.685 551.631 213.918 551.569 214.151C552.266 213.856 552.266 213.756 551.576 213.449Z" fill="#8B8693"/>
<path d="M366.842 41.7253C367.091 41.7507 367.334 41.7299 367.573 41.6652C367.189 40.9537 367.086 40.9422 366.842 41.7253Z" fill="#8B8693"/>
<path d="M633.016 219.471C632.777 219.234 632.54 218.993 632.304 218.755C632.205 219.333 632.451 219.564 633.016 219.471Z" fill="#8B8693"/>
<path d="M334.448 154.456C334.549 154.199 334.607 154.114 334.278 154.183L334.448 154.456Z" fill="#8B8693"/>
<path d="M475.667 150.337C476.933 150.053 475.864 148.771 475.396 149.614C475.292 149.921 475.412 150.157 475.667 150.337Z" fill="#8B8693"/>
<path d="M561.294 228.439C561.347 227.897 561.092 227.631 560.559 227.61C560.474 228.183 560.763 228.419 561.294 228.439Z" fill="#8B8693"/>
<path d="M413.481 132.884C413.279 132.605 413.001 132.575 412.907 132.916C413.038 133.245 413.311 133.184 413.481 132.884Z" fill="#8B8693"/>
<path d="M119.11 157.288C119.344 157.048 119.579 156.808 119.813 156.567C119.197 156.299 118.802 156.653 119.11 157.288Z" fill="#8B8693"/>
<path d="M207.077 162.872C206.68 162.989 206.93 163.167 207.096 163.407C207.369 163.195 207.365 163.066 207.077 162.872Z" fill="#8B8693"/>
<path d="M204.595 391.964C205.618 391.313 205.855 389.518 204.202 389.631C202.828 389.876 203.032 391.911 204.595 391.964Z" fill="#8B8693"/>
<path d="M235.595 373.837C235.498 372.47 233.834 372.966 233.584 373.909C233.308 375.36 235.696 375.219 235.595 373.837Z" fill="#8B8693"/>
<path d="M23.2236 339.417C24.1499 338.643 24.2625 338.347 23.5684 337.478C22.5547 338.021 22.6605 338.345 23.2236 339.417Z" fill="#8B8693"/>
<path d="M104.491 72.0293C105.204 71.2854 105.268 70.6871 104.293 70.4631C103.36 70.9043 103.604 71.4518 104.491 72.0293Z" fill="#8B8693"/>
<path d="M147.025 373.615C148.015 371.525 148.595 371.742 147.232 370.899C146.278 371.839 146.639 372.019 147.025 373.615Z" fill="#8B8693"/>
<path d="M97.6027 24.9217C97.5866 24.1132 96.95 23.8775 96.4995 24.2287C95.187 25.1296 97.0166 26.2662 97.6027 24.9217Z" fill="#8B8693"/>
<path d="M47.2842 37.3961C45.7442 37.8651 46.6337 39.0316 46.5648 39.9233C47.7278 39.3458 47.2061 38.2855 47.2842 37.3961Z" fill="#8B8693"/>
<path d="M179.518 346.481C180.033 346.065 179.927 345.799 179.516 345.381C179.082 345.712 179.392 346.054 179.518 346.481Z" fill="#8B8693"/>
<path d="M86.9862 81.0246C86.8758 80.7821 86.7655 80.5372 86.6575 80.2946C86.1288 80.5834 86.7011 81.7731 86.9862 81.0246Z" fill="#8B8693"/>
<path d="M70.7818 212.368C71.1955 211.843 71.1748 211.488 70.7289 211.012C70.3381 211.522 70.3175 211.883 70.7818 212.368Z" fill="#8B8693"/>
<path d="M25.9935 143.074C25.5338 142.409 25.4188 142.686 25.2993 143.349C25.5131 143.929 25.7774 143.395 25.9935 143.074Z" fill="#8B8693"/>
<path d="M6.49087 77.9963C5.97371 77.5689 5.92314 77.8738 5.93693 78.4236C6.22424 78.9896 6.35526 78.3266 6.49087 77.9963Z" fill="#8B8693"/>
<path d="M111.945 49.0506C111.94 49.5473 111.936 50.044 111.931 50.5383C113.2 50.0532 113.142 49.5565 111.945 49.0506Z" fill="#8B8693"/>
<path d="M39.7245 149.025C39.5107 148.26 38.1063 148.773 38.9775 149.173C39.182 149.228 39.4395 149.09 39.7245 149.025Z" fill="#8B8693"/>
<path d="M0.234364 169.89C-0.257512 170.453 0.087261 170.513 0.691762 170.513C1.31695 170.199 0.58833 170.058 0.234364 169.89Z" fill="#8B8693"/>
<path d="M159.222 166.397C158.91 166.639 158.917 166.778 159.257 166.979C159.547 166.739 159.537 166.598 159.222 166.397Z" fill="#8B8693"/>
<path d="M137.364 181.782C137.155 181.526 137.038 181.535 136.877 181.824C137.086 182.08 137.203 182.071 137.364 181.782Z" fill="#8B8693"/>
<path d="M71.2414 270.998C70.9748 270.742 70.7082 270.485 70.4439 270.229C70.4071 270.802 70.6645 271.067 71.2414 270.998Z" fill="#8B8693"/>
<path d="M93.6426 226.432C93.73 226.432 93.8426 226.467 93.8977 226.423C94.3322 226.05 93.2059 226.052 93.6426 226.432Z" fill="#8B8693"/>
<path d="M111.973 134.104C111.946 133.896 111.946 133.686 111.973 133.478C111.263 133.751 111.263 133.831 111.973 134.104Z" fill="#8B8693"/>
<path d="M616.745 129.34C616.343 129.865 616.237 131.239 617.264 130.678C617.885 130.207 617.791 129.158 616.745 129.34Z" fill="#8B8693"/>
<path d="M527.569 13.8032C527.454 13.4267 527.293 13.6646 527.072 13.8263C527.275 14.0827 527.392 14.0781 527.569 13.8032Z" fill="#8B8693"/>
<path d="M503.136 390.301C503.393 388.118 501.993 388.543 500.394 388.559C500.653 390.179 500.991 391.676 503.136 390.301Z" fill="#8B8693"/>
<path d="M537.505 345.22C536.728 346.107 536.627 346.405 537.505 347.091C538.371 346.402 538.284 346.107 537.505 345.22Z" fill="#8B8693"/>
<path d="M257.329 193.397C258.129 193.183 257.57 191.688 257.186 192.619C257.134 192.836 257.267 193.102 257.329 193.397Z" fill="#8B8693"/>
<path d="M188.636 124.383C187.657 123.699 187.363 123.598 186.758 124.552C187.528 125.333 187.818 125.236 188.636 124.383Z" fill="#8B8693"/>
<path d="M216.06 91.2283C216.055 91.1452 216.083 91.0343 216.039 90.9835C215.678 90.5723 215.682 91.6557 216.06 91.2283Z" fill="#8B8693"/>
<path d="M320.48 127.966C321.071 128.823 322.422 129.643 322.408 127.971C321.703 127.252 321.105 127.943 320.48 127.966Z" fill="#8B8693"/>
<path d="M371.941 50.6214C371.812 49.7875 371.63 50.0716 371.189 50.5775C371.437 50.6376 371.688 50.6514 371.941 50.6214Z" fill="#8B8693"/>
<path d="M424.826 121.745C426.817 121.865 426.212 118.578 424.378 119.139C422.666 119.271 423.233 122.163 424.826 121.745Z" fill="#8B8693"/>
<path d="M274.368 330.747C275.062 330.012 275.138 329.421 274.175 329.199C273.255 329.631 273.504 330.171 274.368 330.747Z" fill="#8B8693"/>
<path d="M153.649 36.4906C152.874 35.5574 152.619 35.4765 151.852 36.2735C152.385 37.3107 152.647 37.2345 153.649 36.4906Z" fill="#8B8693"/>
<path d="M475.347 150.018C475.604 149.302 474.49 149.602 474.032 149.42C473.547 150.485 474.724 150.099 475.347 150.018Z" fill="#8B8693"/>
</g>
<g clip-path="url(#clip1_123_2627)">
<path d="M86.7131 801.933C86.4143 800.355 87.6555 801.665 88.4829 801.933C87.8922 801.933 87.3038 801.933 86.7131 801.933Z" fill="#54505A" fill-opacity="0.7"/>
<path d="M634.421 801.933C635.011 800.979 635.6 801.016 636.19 801.933H634.421Z" fill="#54505A" fill-opacity="0.7"/>
<path d="M280.034 595.787C283.497 595.914 285.872 600.379 281.022 600.053C278.149 599.386 280.194 597.302 280.034 595.787Z" fill="#54505A" fill-opacity="0.7"/>
<path d="M169.001 662.188C171.203 662.05 172.527 664.711 170.274 665.753C168.546 666.319 166.316 662.239 169.001 662.188Z" fill="#54505A" fill-opacity="0.7"/>
<path d="M425.975 560.059C424.684 560.066 424.606 559.162 424.773 558.266C425.582 554.491 430.207 560.273 425.975 560.059Z" fill="#54505A" fill-opacity="0.7"/>
<path d="M587.47 744.174C587.33 745.435 588.152 746.985 586.957 747.891C584.001 748.138 585.054 744.536 587.47 744.174Z" fill="#54505A" fill-opacity="0.7"/>
<path d="M376.053 545.775C377.103 546.47 377.096 547.371 376.91 548.526C374.175 547.995 371.867 543.784 376.053 545.775Z" fill="#54505A" fill-opacity="0.7"/>
<path d="M158.348 735.24C155.886 736.804 155.838 734.73 156.654 732.688C158.394 732.752 158.451 733.942 158.348 735.24Z" fill="#54505A" fill-opacity="0.7"/>
<path d="M115.918 735.139C117.129 735.903 116.782 738.006 115.118 737.296C113.838 736.576 114.585 734.859 115.918 735.139Z" fill="#54505A" fill-opacity="0.7"/>
<path d="M47.7535 507.742C47.857 504.942 51.0886 506.123 50.3301 508.467C49.4705 508.225 48.6132 507.984 47.7535 507.742Z" fill="#54505A" fill-opacity="0.7"/>
<path d="M418.524 771.678C419.836 773.094 419.496 773.963 417.655 774.334C417.632 773.346 417.651 772.371 418.524 771.678Z" fill="#54505A" fill-opacity="0.7"/>
<path d="M303.198 743.804C303.878 743.31 304.379 743.504 304.738 744.319C304.113 744.841 302.89 745.162 303.198 743.804Z" fill="#54505A" fill-opacity="0.7"/>
<path d="M30.1448 727.275C31.8503 726.612 32.6847 728.781 30.9884 729.28C29.8024 729.289 30.2413 728.042 30.1448 727.275Z" fill="#54505A" fill-opacity="0.7"/>
<path d="M144.292 686.368C146.359 684.434 146.756 687.696 144.743 688.195C144.085 688.26 144.32 687.038 144.292 686.368Z" fill="#54505A" fill-opacity="0.7"/>
<path d="M444.164 706.838C444.13 708.818 441.544 708.818 441.56 706.81C442.429 706.819 443.295 706.829 444.164 706.838Z" fill="#54505A" fill-opacity="0.7"/>
<path d="M553.079 564.404C552.518 562.357 554.309 562.387 555.148 563.588C554.955 564.887 553.888 564.397 553.079 564.404Z" fill="#54505A" fill-opacity="0.7"/>
<path d="M423.861 480.979C425.829 481.021 425.838 483.61 423.841 483.61C423.848 482.733 423.854 481.857 423.861 480.979Z" fill="#54505A" fill-opacity="0.7"/>
<path d="M468.068 698.819C468.227 699.422 468.735 700.24 467.723 700.418C465.788 700.372 466.183 698.212 468.068 698.819Z" fill="#54505A" fill-opacity="0.7"/>
<path d="M591.057 652.539C591.641 652.271 592.227 652.003 592.811 651.735C593.078 653.269 591.958 654.784 591.057 652.539Z" fill="#54505A" fill-opacity="0.7"/>
<path d="M344.207 745.056C345.256 744.955 346.219 746.218 345.108 746.918C343.929 747.195 344.159 745.749 344.207 745.056Z" fill="#54505A" fill-opacity="0.7"/>
<path d="M50.484 620.438C49.6749 620.431 49.4359 619.821 49.799 619.341C50.7 617.996 51.8171 619.812 50.484 620.438Z" fill="#54505A" fill-opacity="0.7"/>
<path d="M200.805 481.765C199.024 481.836 199.143 480.605 200.764 480.247C201.453 480.734 201.363 481.242 200.805 481.765Z" fill="#54505A" fill-opacity="0.7"/>
<path d="M291.701 607.464C293.291 608.49 291.579 609.668 291.163 607.924C291.138 607.85 291.48 607.647 291.701 607.464Z" fill="#54505A" fill-opacity="0.7"/>
<path d="M441.5 545.953C441.727 546.69 441.571 546.963 440.891 547.33C440.5 546.607 440.583 546.094 441.5 545.953Z" fill="#54505A" fill-opacity="0.7"/>
<path d="M200.805 481.765C200.913 481.217 200.41 480.177 201.175 480.134C202.184 480.037 201.959 482.081 200.805 481.765Z" fill="#54505A" fill-opacity="0.7"/>
<path d="M521.963 513.02C521.922 513.884 520.85 514.062 520.494 513.39C520.938 513.247 521.671 513.207 521.963 513.02Z" fill="#54505A" fill-opacity="0.7"/>
<path d="M485.799 644.405C484.571 644.426 484.783 643.151 485.794 642.903C486.288 643.402 486.254 643.901 485.799 644.405Z" fill="#54505A" fill-opacity="0.7"/>
<path d="M485.798 644.405C485.916 643.864 485.454 642.855 486.182 642.781C487.145 642.709 486.885 644.758 485.798 644.405Z" fill="#54505A" fill-opacity="0.7"/>
<path d="M417.733 628.472C417.2 628.347 416.89 628.091 417.467 627.788C418.037 627.837 418.264 628.073 417.733 628.472Z" fill="#54505A" fill-opacity="0.7"/>
<path d="M480.427 593.093C480.408 593.751 480.493 594.463 479.611 594.668C479.62 594.005 479.491 593.273 480.427 593.093Z" fill="#54505A" fill-opacity="0.7"/>
<path d="M321.298 549.499C321.101 550.104 320.669 550.439 320.085 550.171C319.126 549.728 321.004 548.561 321.298 549.499Z" fill="#54505A" fill-opacity="0.7"/>
<path d="M207.845 550.208C208.549 549.092 209.229 549.157 209.896 550.243C209.424 550.906 208.266 550.936 207.845 550.208Z" fill="#54505A" fill-opacity="0.7"/>
<path d="M550.303 474.843C550.522 475.456 550.168 475.751 549.559 475.601C549.494 475.037 549.696 474.739 550.303 474.843Z" fill="#54505A" fill-opacity="0.7"/>
<path d="M131.924 614.415C131.866 614.651 131.869 614.884 131.931 615.118C131.234 614.822 131.234 614.723 131.924 614.415Z" fill="#54505A" fill-opacity="0.7"/>
<path d="M316.658 442.692C316.409 442.717 316.166 442.696 315.927 442.632C316.311 441.92 316.414 441.908 316.658 442.692Z" fill="#54505A" fill-opacity="0.7"/>
<path d="M369.897 697.803C369.757 697.149 370.088 696.904 370.697 697.094C370.654 697.484 370.527 697.932 369.897 697.803Z" fill="#54505A" fill-opacity="0.7"/>
<path d="M56.1221 579.826C56.5266 579.946 56.2738 580.127 56.1037 580.369C55.8256 580.152 55.8302 580.023 56.1221 579.826Z" fill="#54505A" fill-opacity="0.7"/>
<path d="M209.896 550.243C211.463 550.788 209.114 551.934 209.28 550.638C209.411 550.296 209.615 550.299 209.896 550.243Z" fill="#54505A" fill-opacity="0.7"/>
<path d="M559.147 479.304C559.196 479.524 559.196 479.743 559.147 479.96C558.607 479.589 558.364 479.452 559.147 479.304Z" fill="#54505A" fill-opacity="0.7"/>
<path d="M312.518 555.186C312.746 554.895 312.872 554.907 313.059 555.226C312.831 555.514 312.702 555.507 312.518 555.186Z" fill="#54505A" fill-opacity="0.7"/>
<path d="M476.423 563.838C476.82 563.955 476.57 564.133 476.404 564.374C476.131 564.161 476.135 564.032 476.423 563.838Z" fill="#54505A" fill-opacity="0.7"/>
<path d="M621.813 731.11C621.887 728.957 622.671 727.732 626.178 728.885C623.519 729.015 622.949 730.391 621.813 731.11Z" fill="#54505A" fill-opacity="0.7"/>
<path d="M649.648 644.886C649.871 643.629 651.062 643.574 651.671 644.618C651.103 645.218 649.747 646.459 649.648 644.886Z" fill="#54505A" fill-opacity="0.7"/>
<path d="M660.276 740.383C659.35 739.609 659.237 739.313 659.932 738.445C660.945 738.988 660.84 739.311 660.276 740.383Z" fill="#54505A" fill-opacity="0.7"/>
<path d="M603.453 711.169C604.067 711.781 604.633 712.47 603.888 713.285C602.07 714.211 602.748 712.049 603.453 711.169Z" fill="#54505A" fill-opacity="0.7"/>
<path d="M536.475 774.582C535.485 772.491 534.905 772.708 536.268 771.865C537.222 772.805 536.861 772.985 536.475 774.582Z" fill="#54505A" fill-opacity="0.7"/>
<path d="M585.897 425.888C585.913 425.079 586.55 424.844 587.001 425.195C588.313 426.096 586.483 427.232 585.897 425.888Z" fill="#54505A" fill-opacity="0.7"/>
<path d="M612.259 671.964C611.466 671.877 611.236 671.17 611.569 670.756C612.546 669.426 613.734 671.495 612.259 671.964Z" fill="#54505A" fill-opacity="0.7"/>
<path d="M636.216 438.362C637.756 438.831 636.866 439.998 636.935 440.89C635.772 440.312 636.294 439.252 636.216 438.362Z" fill="#54505A" fill-opacity="0.7"/>
<path d="M510.093 794.508C510.314 793.684 511.833 794.24 510.893 794.659C510.673 794.719 510.397 794.573 510.093 794.508Z" fill="#54505A" fill-opacity="0.7"/>
<path d="M612.718 613.334C612.305 612.81 612.325 612.454 612.771 611.978C613.162 612.488 613.183 612.849 612.718 613.334Z" fill="#54505A" fill-opacity="0.7"/>
<path d="M585.093 493.056C585.41 492.472 585.737 492.604 586.219 492.876C585.902 493.428 585.589 493.324 585.093 493.056Z" fill="#54505A" fill-opacity="0.7"/>
<path d="M657.507 544.04C657.966 543.375 658.081 543.652 658.201 544.315C657.987 544.895 657.723 544.361 657.507 544.04Z" fill="#54505A" fill-opacity="0.7"/>
<path d="M653.337 473.619C653.096 473.118 652.99 472.801 653.556 472.513C653.801 473.002 653.926 473.33 653.337 473.619Z" fill="#54505A" fill-opacity="0.7"/>
<path d="M571.555 450.017C572.766 449.996 572.561 451.248 571.568 451.504C571.113 451.012 571.106 450.516 571.555 450.017Z" fill="#54505A" fill-opacity="0.7"/>
<path d="M643.776 549.991C643.989 549.227 645.394 549.739 644.523 550.139C644.318 550.194 644.061 550.056 643.776 549.991Z" fill="#54505A" fill-opacity="0.7"/>
<path d="M585.897 425.888C586.129 426.126 586.362 426.361 586.594 426.599C586.017 426.703 585.794 426.456 585.897 425.888Z" fill="#54505A" fill-opacity="0.7"/>
<path d="M612.259 671.964C612.525 671.708 612.792 671.451 613.056 671.195C613.093 671.768 612.835 672.034 612.259 671.964Z" fill="#54505A" fill-opacity="0.7"/>
<path d="M589.858 627.398C589.771 627.398 589.658 627.433 589.603 627.389C589.168 627.016 590.295 627.019 589.858 627.398Z" fill="#54505A" fill-opacity="0.7"/>
<path d="M571.527 535.07C571.555 534.862 571.555 534.652 571.527 534.444C572.238 534.717 572.238 534.798 571.527 535.07Z" fill="#54505A" fill-opacity="0.7"/>
<path d="M172.467 435.651C174.117 439.437 167.217 438.868 168.426 435.974C169.67 435.262 170.996 434.036 172.467 435.651Z" fill="#54505A" fill-opacity="0.7"/>
<path d="M117.692 473.799C118.073 472.027 121.415 473.081 120.797 474.612C120.022 476.294 117.204 475.786 117.692 473.799Z" fill="#54505A" fill-opacity="0.7"/>
<path d="M155.63 498.018C156.52 498.76 156.807 500.176 155.433 500.065C154.727 499.55 154.932 498.728 155.63 498.018Z" fill="#54505A" fill-opacity="0.7"/>
<path d="M132.713 464.416C133.457 463.704 134.048 463.623 134.271 464.617C133.837 465.562 133.294 465.298 132.713 464.416Z" fill="#54505A" fill-opacity="0.7"/>
<path d="M66.755 530.307C67.1572 530.831 67.263 532.205 66.2356 531.644C65.615 531.173 65.7092 530.124 66.755 530.307Z" fill="#54505A" fill-opacity="0.7"/>
<path d="M157.377 457.871C157.457 458.781 156.821 458.874 156.287 458.604C155.352 458.172 157.044 457.199 157.377 457.871Z" fill="#54505A" fill-opacity="0.7"/>
<path d="M157.377 457.871C157.085 457.866 156.795 457.841 156.508 457.793C157.028 457.367 157.319 456.947 157.377 457.871Z" fill="#54505A" fill-opacity="0.7"/>
<path d="M145.996 746.186C146.772 747.073 146.874 747.371 145.996 748.057C145.129 747.369 145.216 747.073 145.996 746.186Z" fill="#54505A" fill-opacity="0.7"/>
<path d="M203.667 747.819C204.106 748.334 203.802 748.369 203.264 748.371C202.715 748.092 203.356 747.969 203.667 747.819Z" fill="#54505A" fill-opacity="0.7"/>
<path d="M426.172 594.363C425.372 594.148 425.93 592.654 426.314 593.585C426.367 593.802 426.234 594.068 426.172 594.363Z" fill="#54505A" fill-opacity="0.7"/>
<path d="M494.864 525.349C495.843 524.666 496.137 524.564 496.742 525.518C495.972 526.299 495.682 526.202 494.864 525.349Z" fill="#54505A" fill-opacity="0.7"/>
<path d="M467.44 492.195C467.445 492.111 467.417 492.001 467.461 491.95C467.822 491.539 467.818 492.622 467.44 492.195Z" fill="#54505A" fill-opacity="0.7"/>
<path d="M363.021 528.932C362.43 529.789 361.078 530.609 361.092 528.937C361.798 528.218 362.395 528.909 363.021 528.932Z" fill="#54505A" fill-opacity="0.7"/>
<path d="M362.6 528.992C362.096 528.974 361.595 528.955 361.092 528.937C361.135 527.717 362.388 527.985 362.6 528.992Z" fill="#54505A" fill-opacity="0.7"/>
<path d="M311.559 451.588C311.688 450.754 311.87 451.038 312.311 451.544C312.063 451.604 311.812 451.618 311.559 451.588Z" fill="#54505A" fill-opacity="0.7"/>
<path d="M409.133 731.713C408.439 730.978 408.363 730.387 409.326 730.165C410.245 730.597 409.997 731.138 409.133 731.713Z" fill="#54505A" fill-opacity="0.7"/>
<path d="M529.851 437.457C530.626 436.523 530.881 436.443 531.648 437.24C531.115 438.277 530.853 438.201 529.851 437.457Z" fill="#54505A" fill-opacity="0.7"/>
<path d="M208.153 550.984C207.896 550.268 209.01 550.568 209.468 550.386C209.953 551.451 208.776 551.065 208.153 550.984Z" fill="#54505A" fill-opacity="0.7"/>
<path d="M1.03096e-05 584.991C1.19752 585.585 1.25268 586.176 1.03096e-05 586.77V584.991Z" fill="#8B8693"/>
<path d="M154.803 618.885C154.077 621.424 152.592 621.852 150.454 620.465C151.218 618.033 151.875 615.302 154.803 618.885Z" fill="#8B8693"/>
<path d="M201.453 609.945C202.619 607.529 206.158 606.103 206.011 609.356C204.903 610.555 203.43 609.64 201.453 609.945Z" fill="#8B8693"/>
<path d="M232.807 449.878C235.041 450.479 234.717 453.156 232.384 452.484C230.106 452.89 231.016 449.871 232.807 449.878Z" fill="#8B8693"/>
<path d="M666.271 525.525C665.096 524.233 665.225 522.866 666.942 522.725C668.969 522.868 668.186 526.146 666.271 525.525Z" fill="#8B8693"/>
<path d="M211.502 540.457C210.434 537.738 213.75 537.045 214.743 539.124C214.157 540.621 212.861 540.672 211.502 540.457Z" fill="#8B8693"/>
<path d="M270.203 477.322C269.164 477.463 268.932 476.798 269.012 476.047C268.238 471.489 274.189 475.814 270.203 477.322Z" fill="#8B8693"/>
<path d="M461.881 609.862C462.674 610.708 463.184 611.846 461.759 612.218C459.424 612.63 459.663 609.063 461.881 609.862Z" fill="#8B8693"/>
<path d="M556.065 472.55C554.523 472.711 554.728 470.327 556.125 470.519C557.27 470.764 557.238 472.289 556.065 472.55Z" fill="#8B8693"/>
<path d="M150.817 782.18C151.479 781.327 152.488 781.863 152.845 782.6C153.178 784.044 150.702 783.559 150.817 782.18Z" fill="#8B8693"/>
<path d="M537.046 514.797C537.494 516.479 535.908 517.38 534.391 516.532C534.623 514.945 535.72 514.693 537.046 514.797Z" fill="#8B8693"/>
<path d="M332.791 626.821C331.823 628.292 330.051 626.555 330.157 625.046C331.366 625.051 333.998 624.899 332.791 626.821Z" fill="#8B8693"/>
<path d="M552.933 524.529C553.664 523.667 554.647 523.61 555.666 523.663C555.859 525.294 553.098 526.696 552.933 524.529Z" fill="#8B8693"/>
<path d="M40.6928 792.829C41.0698 791.896 42.1546 791.163 42.2695 792.455C42.0604 793.552 41.5662 793.499 40.6928 792.829Z" fill="#8B8693"/>
<path d="M152.01 788.678C152.381 789.676 151.907 791.482 150.645 790.422C150.149 789.486 151.008 788.317 152.01 788.678Z" fill="#8B8693"/>
<path d="M280.048 778.834C279.271 778.176 279.105 777.585 280.052 777.257C280.997 777.592 280.829 778.178 280.048 778.834Z" fill="#8B8693"/>
<path d="M335.402 771.922C336.098 772.967 336.19 773.267 335.216 773.909C334.453 773.094 334.558 772.791 335.402 771.922Z" fill="#8B8693"/>
<path d="M506.248 523.617C508.045 525.793 504.542 526.248 504.542 523.901C504.607 522.898 505.623 523.499 506.248 523.617Z" fill="#8B8693"/>
<path d="M29.2003 678.354C27.9223 676.956 28.1683 676.067 30.0645 675.727C30.0944 676.709 30.0898 677.679 29.2003 678.354Z" fill="#8B8693"/>
<path d="M212.313 400.967C212.902 402.3 210.514 403.355 210.263 401.798C210.585 400.692 211.559 401.087 212.313 400.967Z" fill="#8B8693"/>
<path d="M519.391 740.584C518.097 742.134 517.035 739.614 518.474 738.833C518.779 739.417 519.085 740.002 519.391 740.584Z" fill="#8B8693"/>
<path d="M337.673 780.285C338.367 779.717 339.44 779.687 339.275 780.731C338.735 781.576 338.176 780.798 337.673 780.285Z" fill="#8B8693"/>
<path d="M511.477 684.58C512.445 683.869 514.394 683.554 514.084 685.46C513.107 685.493 512.132 685.513 511.477 684.58Z" fill="#8B8693"/>
<path d="M355.706 608.98C354.941 608.943 353.856 609.229 354.029 607.924C354.389 606.279 357.111 607.779 355.706 608.98Z" fill="#8B8693"/>
<path d="M285.739 623.143C284.162 622.866 286.989 620.63 286.617 622.425C286.651 622.903 286.375 623.24 285.739 623.143Z" fill="#8B8693"/>
<path d="M564.42 559.169C563.742 559.109 562.933 559.174 562.917 558.199C563.535 557.002 564.678 558.035 564.42 559.169Z" fill="#8B8693"/>
<path d="M351.254 543.07C349.445 543.186 349.581 541.818 351.254 541.557C351.81 542.061 351.81 542.564 351.254 543.07Z" fill="#8B8693"/>
<path d="M395.461 719.225C394.905 719.199 394.349 719.174 393.792 719.148C394.018 718 396.072 718.023 395.461 719.225Z" fill="#8B8693"/>
<path d="M247.071 653.412C246.51 653.253 246.154 652.98 246.791 652.661C247.407 652.714 247.605 652.962 247.071 653.412Z" fill="#8B8693"/>
<path d="M131.924 614.415C133.528 614.734 133.533 614.783 131.931 615.118C131.499 614.919 131.644 614.487 131.924 614.415Z" fill="#8B8693"/>
<path d="M342.455 610.696C342.235 609.963 342.389 609.7 343.083 609.379C343.416 610.079 343.405 610.613 342.455 610.696Z" fill="#8B8693"/>
<path d="M351.254 543.07C351.254 542.566 351.254 542.06 351.254 541.557C352.512 541.51 352.275 542.825 351.254 543.07Z" fill="#8B8693"/>
<path d="M528.339 654.306C528.872 653.091 529.421 653.146 529.987 654.285L528.339 654.306Z" fill="#8B8693"/>
<path d="M209.891 551.252C209.231 552.294 208.548 552.47 207.833 551.303C208.289 550.536 209.378 550.548 209.891 551.252Z" fill="#8B8693"/>
<path d="M406.181 503.175C406.181 502.625 406.179 502.075 406.177 501.525C407.404 502.071 407.453 502.62 406.181 503.175Z" fill="#8B8693"/>
<path d="M355.707 608.979C355.693 608.441 355.679 607.901 355.668 607.362C357.49 607.178 356.159 610.128 355.707 608.979Z" fill="#8B8693"/>
<path d="M321.298 549.499C319.781 549.779 320.215 548.201 321.434 548.663C322.022 548.931 321.719 549.275 321.298 549.499Z" fill="#8B8693"/>
<path d="M14.522 638.972C14.2554 638.323 14.0508 638.064 14.6944 637.715C14.9748 638.237 15.0208 638.521 14.522 638.972Z" fill="#8B8693"/>
<path d="M352.751 784.808C351.921 784.981 352.597 783.637 352.895 784.531C352.921 784.596 352.803 784.72 352.751 784.808Z" fill="#8B8693"/>
<path d="M551.204 475.53C550.908 475.685 549.827 476.063 550.37 475.484C549.453 474.703 551.328 474.536 551.204 475.53Z" fill="#8B8693"/>
<path d="M50.4839 620.438C50.7229 620.2 50.9597 619.96 51.1965 619.722C51.2953 620.299 51.0493 620.53 50.4839 620.438Z" fill="#8B8693"/>
<path d="M283.02 420.457C282.928 421.319 282.718 420.993 282.256 420.51C282.486 420.138 282.741 420.122 283.02 420.457Z" fill="#8B8693"/>
<path d="M378.726 601.941C379.556 602.065 379.282 602.264 378.797 602.733C378.705 602.474 378.682 602.211 378.726 601.941Z" fill="#8B8693"/>
<path d="M349.052 555.422C348.951 555.166 348.893 555.08 349.223 555.149L349.052 555.422Z" fill="#8B8693"/>
<path d="M207.834 551.303C206.567 551.019 207.636 549.737 208.105 550.58C208.208 550.887 208.089 551.123 207.834 551.303Z" fill="#8B8693"/>
<path d="M355.608 609.146C355.895 609.077 356.182 609.005 356.467 608.936C356.417 609.987 356.051 609.73 355.608 609.146Z" fill="#8B8693"/>
<path d="M559.147 479.304C559.901 479.591 559.901 479.674 559.147 479.96C558.925 479.743 558.925 479.519 559.147 479.304Z" fill="#8B8693"/>
<path d="M283.019 420.457C282.594 420.47 281.739 420.611 282.017 419.967C282.514 419.334 283.546 419.606 283.019 420.457Z" fill="#8B8693"/>
<path d="M282.325 419.729C282.353 420.42 282.176 420.685 281.48 420.466C281.16 419.65 281.654 419.657 282.325 419.729Z" fill="#8B8693"/>
<path d="M122.206 629.405C122.153 628.862 122.408 628.597 122.941 628.576C123.026 629.149 122.737 629.384 122.206 629.405Z" fill="#8B8693"/>
<path d="M270.019 533.85C270.221 533.571 270.5 533.541 270.594 533.883C270.463 534.211 270.189 534.151 270.019 533.85Z" fill="#8B8693"/>
<path d="M564.391 558.254C564.156 558.014 563.922 557.774 563.687 557.534C564.303 557.266 564.699 557.619 564.391 558.254Z" fill="#8B8693"/>
<path d="M635.455 583.617C635.538 582.099 638.119 582.39 637.694 583.949C637.391 585.197 635.361 584.915 635.455 583.617Z" fill="#8B8693"/>
<path d="M478.905 792.931C477.883 792.279 477.646 790.484 479.298 790.597C480.673 790.842 480.468 792.878 478.905 792.931Z" fill="#8B8693"/>
<path d="M588.446 472.178C589.89 472.233 593.108 474.268 590.097 474.703C588.492 474.601 588.4 473.416 588.446 472.178Z" fill="#8B8693"/>
<path d="M447.906 774.803C448.002 773.436 449.666 773.933 449.917 774.875C450.193 776.326 447.804 776.185 447.906 774.803Z" fill="#8B8693"/>
<path d="M590.547 758.644C591.216 757.942 592.864 757.501 592.607 759.065C592.393 760.407 590.193 760.344 590.547 758.644Z" fill="#8B8693"/>
<path d="M578.687 454.274C578.947 455.436 577.549 456.559 576.6 455.482C576.058 454.263 577.765 452.941 578.687 454.274Z" fill="#8B8693"/>
<path d="M452.139 794.811C451.31 794.702 450.243 794.675 450.216 793.628C450.717 791.568 453.578 793.159 452.139 794.811Z" fill="#8B8693"/>
<path d="M623.866 520.946C623.338 519.267 624.609 516.857 625.758 519.181C625.811 520.302 624.976 520.87 623.866 520.946Z" fill="#8B8693"/>
<path d="M526.539 759.231C526.355 757.075 529.283 757.11 529.095 759.245C528.242 759.24 527.392 759.235 526.539 759.231Z" fill="#8B8693"/>
<path d="M579.009 472.996C578.296 472.252 578.232 471.653 579.207 471.429C580.14 471.871 579.896 472.418 579.009 472.996Z" fill="#8B8693"/>
<path d="M570.67 437.963C571.265 437.034 571.824 436.801 572.263 437.778C572.019 438.774 571.41 438.723 570.67 437.963Z" fill="#8B8693"/>
<path d="M602.789 512.676C603.21 511.893 603.807 512.311 604.196 512.741C604.584 513.956 603.21 513.372 602.789 512.676Z" fill="#8B8693"/>
<path d="M503.982 747.447C503.467 747.031 503.573 746.766 503.984 746.348C504.418 746.678 504.108 747.02 503.982 747.447Z" fill="#8B8693"/>
<path d="M596.514 481.991C596.624 481.748 596.735 481.504 596.843 481.261C597.371 481.55 596.799 482.739 596.514 481.991Z" fill="#8B8693"/>
<path d="M453.004 799.348C452.859 799.863 453.404 801.251 451.99 800.154C452.328 799.886 452.666 799.616 453.004 799.348Z" fill="#8B8693"/>
<path d="M669.73 553.082C669.373 552.867 668.99 552.541 669.534 552.253C670.642 551.437 671.038 553.782 669.73 553.082Z" fill="#8B8693"/>
<path d="M657.943 575.767C657.474 575.363 657.548 575.13 657.934 574.732C658.345 575.035 658.054 575.356 657.943 575.767Z" fill="#8B8693"/>
<path d="M677.009 478.962C677.526 478.535 677.577 478.84 677.563 479.39C677.276 479.956 677.145 479.293 677.009 478.962Z" fill="#8B8693"/>
<path d="M581.395 501.565C581.532 500.996 581.804 500.65 582.125 501.278C582.075 501.886 581.82 502.128 581.395 501.565Z" fill="#8B8693"/>
<path d="M571.555 450.017C571.56 450.513 571.564 451.01 571.569 451.504C570.3 451.019 570.358 450.523 571.555 450.017Z" fill="#8B8693"/>
<path d="M581.544 521.471C581.969 520.979 582.268 521.05 582.767 521.325C582.415 521.947 582.162 521.748 581.544 521.471Z" fill="#8B8693"/>
<path d="M683.266 570.856C683.758 571.419 683.413 571.479 682.808 571.479C682.183 571.165 682.912 571.024 683.266 570.856Z" fill="#8B8693"/>
<path d="M669.73 553.082C670.019 553.022 670.309 552.966 670.599 552.92C670.484 553.921 670.141 553.687 669.73 553.082Z" fill="#8B8693"/>
<path d="M524.278 567.363C524.59 567.606 524.583 567.744 524.243 567.945C523.953 567.705 523.963 567.564 524.278 567.363Z" fill="#8B8693"/>
<path d="M616.008 567.634C616.196 567.379 616.449 567.356 616.529 567.671C616.405 567.971 616.157 567.911 616.008 567.634Z" fill="#8B8693"/>
<path d="M546.136 582.748C546.345 582.492 546.462 582.501 546.623 582.79C546.414 583.046 546.297 583.037 546.136 582.748Z" fill="#8B8693"/>
<path d="M571.527 535.07C570.801 534.798 570.801 534.717 571.527 534.444C571.946 534.627 571.794 535.01 571.527 535.07Z" fill="#8B8693"/>
<path d="M81.537 561.412C81.7898 561.075 81.9369 561.082 82.1553 561.445C81.9024 561.78 81.7554 561.775 81.537 561.412Z" fill="#8B8693"/>
<path d="M155.932 414.77C156.047 414.393 156.208 414.631 156.428 414.793C156.226 415.049 156.109 415.044 155.932 414.77Z" fill="#8B8693"/>
<path d="M180.364 791.267C180.107 789.084 181.507 789.509 183.106 789.526C182.847 791.145 182.509 792.642 180.364 791.267Z" fill="#8B8693"/>
<path d="M142.699 692.61C143.552 691.79 143.846 691.706 144.611 692.483C143.975 693.437 143.685 693.328 142.699 692.61Z" fill="#8B8693"/>
<path d="M346.843 528.117C346.49 526.604 347.122 525.208 348.648 526.301C349.351 528.812 348.85 530.422 346.843 528.117Z" fill="#8B8693"/>
<path d="M258.674 522.711C256.683 522.831 257.288 519.544 259.122 520.105C260.834 520.237 260.267 523.129 258.674 522.711Z" fill="#8B8693"/>
<path d="M96.2951 607.219C96.3594 605.782 97.7914 606.739 97.111 607.621C96.718 608.139 96.4927 607.536 96.2951 607.219Z" fill="#8B8693"/>
<path d="M511.567 616.067C511.691 615.275 511.817 615.513 512.178 616.067C511.976 616.372 511.771 616.372 511.567 616.067Z" fill="#8B8693"/>
<path d="M511.567 616.067C511.719 616.081 512.024 616.081 512.178 616.067C512.054 616.873 511.93 616.626 511.567 616.067Z" fill="#8B8693"/>
</g>
<defs>
<clipPath id="clip0_123_2627">
<rect width="683.5" height="400.967" fill="white" transform="matrix(1 0 0 -1 0 400.967)"/>
</clipPath>
<clipPath id="clip1_123_2627">
<rect width="683.5" height="400.967" fill="white" transform="matrix(-1 0 0 -1 683.5 801.933)"/>
</clipPath>
</defs>
</svg>
